<svg xmlns="http://www.w3.org/2000/svg" viewBox="0 0 100.2 47.65"><defs><style>.cls-1{fill:#932477;stroke:#fff;stroke-miterlimit:10;stroke-width:0.2px;}</style></defs><g id="Layer_2" data-name="Layer 2"><g id="Layer_1-2" data-name="Layer 1"><path class="cls-1" d="M20.13,32.55l-.31,0H15.31a.48.48,0,0,1-.36-.23,4,4,0,0,0-4.38-2.81c-2.42.15-3.94,1.43-4.63,4a9.42,9.42,0,0,0,.41,6.63,5,5,0,0,0,7.18,2.37,4,4,0,0,0,2-3.13h-4V35.48h8.9V46.94H16.77c-.1-.82-.2-1.65-.31-2.51a.81.81,0,0,0-.13.11,6.56,6.56,0,0,1-5.42,2.89,9.89,9.89,0,0,1-6.46-1.72,9.65,9.65,0,0,1-3.62-5,13.24,13.24,0,0,1,.27-9.4A9.57,9.57,0,0,1,10,25.15a11.35,11.35,0,0,1,5.4.89,8.15,8.15,0,0,1,4.75,6.38,1.05,1.05,0,0,1,0,.13"/><path class="cls-1" d="M74.85,21.73h-.58c-1.35,0-2.71,0-4.07,0-.37,0-.56-.14-.61-.45-.12-.8-.22-1.61-.32-2.41s-.12-1.46-.24-2.18A2.86,2.86,0,0,0,66.23,14c-1.21-.1-2.43,0-3.68,0v7.69H57.44V1l.27,0c3.37,0,6.74,0,10.12,0a8,8,0,0,1,3.59.85,5.45,5.45,0,0,1,3.14,5.6,4.81,4.81,0,0,1-3.27,4.42L71,12c.28.13.52.22.74.34A4.12,4.12,0,0,1,74,15.72c.19,1.47.27,2.94.41,4.41a1.82,1.82,0,0,0,.44,1.3c0,.05,0,.17,0,.3M62.56,10.08c1.59,0,3.16.07,4.71,0a2.14,2.14,0,0,0,2.06-1.61,2.49,2.49,0,0,0-2.42-3.36c-1.21-.06-2.43,0-3.64,0h-.71Z"/><path class="cls-1" d="M63.46,40.23h5.32c0,.1.06.21.08.32A2.89,2.89,0,0,0,71,43a6,6,0,0,0,4.25-.17,1.93,1.93,0,0,0,1.08-1.09,1.76,1.76,0,0,0-.58-2,5.24,5.24,0,0,0-2.13-.94c-1.21-.31-2.44-.59-3.64-1a22.4,22.4,0,0,1-2.63-1,5.42,5.42,0,0,1-3.2-5.63,5.54,5.54,0,0,1,3.66-5.11,12.09,12.09,0,0,1,9.39,0,6,6,0,0,1,3.88,5.5,1.7,1.7,0,0,1,0,.21H75.91a.93.93,0,0,0,0-.1,2.7,2.7,0,0,0-2.28-2.33,4.63,4.63,0,0,0-3.17.33,1.67,1.67,0,0,0-1,1.89,1.44,1.44,0,0,0,1.06,1.15c1.08.35,2.17.68,3.27,1a19.62,19.62,0,0,1,5.4,1.9A5,5,0,0,1,81.67,39a6.39,6.39,0,0,1-4.24,7.63A12.64,12.64,0,0,1,67,46.14a6.32,6.32,0,0,1-3.52-5.91"/><polygon class="cls-1" points="50.42 33.76 59.76 33.76 59.76 37.87 50.43 37.87 50.43 42.45 61.48 42.45 61.48 46.95 45.11 46.95 45.11 25.58 61.31 25.58 61.31 29.93 50.42 29.93 50.42 33.76"/><path class="cls-1" d="M36.25,25.57h5.33v.36q0,6.74,0,13.45a8.67,8.67,0,0,1-.8,3.92,6.57,6.57,0,0,1-4.35,3.56,13.52,13.52,0,0,1-8-.13,6.61,6.61,0,0,1-4.66-5.67,13.94,13.94,0,0,1-.12-1.83c0-4.37,0-8.73,0-13.1v-.54H29V39.48a6.68,6.68,0,0,0,.09,1.09A2.81,2.81,0,0,0,31.46,43a5.54,5.54,0,0,0,2.33,0,3.15,3.15,0,0,0,2.45-3.19c0-2.27,0-4.54,0-6.82s0-4.6,0-6.9Z"/><path class="cls-1" d="M.32,15.2H5.43s.05.05.05.07A3,3,0,0,0,8.4,18.05a5.31,5.31,0,0,0,3.44-.42,1.73,1.73,0,0,0,.94-2.1,2.37,2.37,0,0,0-.54-.79,4.24,4.24,0,0,0-2-1c-1.23-.31-2.47-.59-3.68-.95a20,20,0,0,1-2.66-1,5,5,0,0,1-3-4.93A5.42,5.42,0,0,1,4.61,1.45,11.6,11.6,0,0,1,14,1.64a5.65,5.65,0,0,1,3.37,5,1.77,1.77,0,0,1,0,.23s0,0,0,.1H12.38s0,0-.05-.06a2.73,2.73,0,0,0-2.6-2.35,4.1,4.1,0,0,0-2.94.53A1.57,1.57,0,0,0,6.12,7a1.45,1.45,0,0,0,1,1c1.07.33,2.14.66,3.23.93a19.47,19.47,0,0,1,5,1.74A4.89,4.89,0,0,1,18,14.47a6.08,6.08,0,0,1-2.89,6.34,8.4,8.4,0,0,1-3,1.17,13.54,13.54,0,0,1-7.66-.68A6.29,6.29,0,0,1,.33,15.72c0-.11,0-.21,0-.32s0-.1,0-.2"/><path class="cls-1" d="M55.24,21.72c-1.77,0-3.48,0-5.19,0-.11,0-.27-.17-.31-.3-.35-1-.69-2.05-1-3.08a.41.41,0,0,0-.46-.35H41.72a.4.4,0,0,0-.44.32c-.31,1-.64,2.07-1,3.1,0,.13-.19.31-.3.31-1.63,0-3.26,0-5,0,.05-.16.08-.29.13-.42q3.59-10,7.17-20A.44.44,0,0,1,42.83,1c1.54,0,3.08,0,4.63,0a.37.37,0,0,1,.41.3l7.29,20.21.08.23M45,6.47l-2.43,7.8h4.78L45,6.47"/><path class="cls-1" d="M100.1,21.68H78.87c0-.19,0-.35,0-.52,0-3.33,0-6.66,0-10a2.64,2.64,0,0,1,.81-2c2.57-2.55,5.12-5.12,7.68-7.68q.45-.47.93-.9a1.69,1.69,0,0,1,2.43,0l.08.09,8.55,8.58a2.59,2.59,0,0,1,.77,1.91c0,1.33,0,2.66,0,4,0,1.9,0,3.81,0,5.72v.77M82,19h15c0-.06,0-.08,0-.11,0-2.36,0-4.73,0-7.09a.63.63,0,0,0-.19-.4l-7-7-.28-.27c-.22.21-.4.37-.57.55l-6.67,6.64A.93.93,0,0,0,82,12c0,2.19,0,4.39,0,6.58Z"/><polygon class="cls-1" points="88.14 46.95 88.14 30.08 81.94 30.08 81.94 25.59 99.71 25.59 99.71 30.07 93.45 30.07 93.45 46.95 88.14 46.95"/><polygon class="cls-1" points="19.22 5.37 19.22 1.01 36.44 1.01 36.44 5.34 30.37 5.34 30.37 21.7 25.25 21.7 25.25 5.37 19.22 5.37"/><path class="cls-1" d="M89.53,17.55a5.17,5.17,0,0,1-4.32-2.33,9.5,9.5,0,0,1-.81-1.55,1,1,0,0,1,.19-1.09.7.7,0,0,1,1.21.06c.33.46.62.94,1,1.38A3.1,3.1,0,0,0,92,14c.29-.4.55-.82.82-1.24s.42-.54.82-.43a.85.85,0,0,1,.67.85,1.82,1.82,0,0,1-.07.62,5.53,5.53,0,0,1-4,3.68c-.29.07-.59.08-.75.11"/></g></g></svg>