<svg xmlns="http://www.w3.org/2000/svg" viewBox="0 0 27.17 29.38"><defs><style>.cls-1{fill:none;stroke:#4f4f4f;stroke-linecap:round;stroke-linejoin:round;stroke-width:1.17px;fill-rule:evenodd;}</style></defs><g id="Layer_2" data-name="Layer 2"><g id="Layer_1-2" data-name="Layer 1"><path class="cls-1" d="M26.59,13.31a3.09,3.09,0,0,0-3.1-3.09H3.68A3.07,3.07,0,0,0,.59,13.31V25.69a3.09,3.09,0,0,0,3.09,3.1H23.49a3.11,3.11,0,0,0,3.1-3.1Zm-1.24,0a1.86,1.86,0,0,0-1.86-1.86H3.68a1.86,1.86,0,0,0-1.85,1.86V25.69A1.85,1.85,0,0,0,2.37,27a1.89,1.89,0,0,0,1.31.54H23.49a1.84,1.84,0,0,0,1.86-1.86Z"/><path class="cls-1" d="M13.59,16.41a3.1,3.1,0,1,0,3.09,3.09A3.09,3.09,0,0,0,13.59,16.41Zm0,1.24a1.86,1.86,0,1,1-1.86,1.85A1.85,1.85,0,0,1,13.59,17.65Z"/><path class="cls-1" d="M22.87,10.84v-1A9.29,9.29,0,0,0,13.59.59v0A9.29,9.29,0,0,0,4.3,9.87v1H5.54v-1a8,8,0,0,1,8.05-8v0a8,8,0,0,1,8,8v1Z"/></g></g></svg>