<svg xmlns="http://www.w3.org/2000/svg" viewBox="0 0 558.6 462"><defs><style>.cls-1{fill:#f2f2f2;}.cls-2{fill:#9e616a;}.cls-3{fill:#3f3d56;}.cls-4{fill:#fff;}.cls-5{fill:#2f2e41;}.cls-6{fill:#ffb6b6;}.cls-7{fill:#a0057d;}.cls-8{fill:#ccc;}.cls-9{fill:#ffb8b8;}.cls-10{fill:#29abe2;}.cls-11{fill:#e6e6e6;}</style></defs><g id="Layer_2" data-name="Layer 2"><g id="Layer_1-2" data-name="Layer 1"><path class="cls-1" d="M391.88,142.8a52.78,52.78,0,1,1-52.69-52.87h0a52.65,52.65,0,0,1,52.69,52.6Z"/><path class="cls-2" d="M479.72,173.57l7.42-14.17c-6.66-8-28.49-17.78-28.49-17.78l-29.55-26.9a7.06,7.06,0,1,0-8.67,8.61l31.92,38.29Z"/><path class="cls-3" d="M476.12,172.59l10.48,3.34a36,36,0,0,0,23.34-.52h0a13,13,0,0,0,8.39-10.84h0a13,13,0,0,0-10.79-14c-9.83-1.62-22.49-2.41-27,3l0,.06Z"/><circle class="cls-4" cx="400.75" cy="163.19" r="52.78"/><path class="cls-5" d="M379.21,142.55a49.19,49.19,0,0,1-3.54,11.29c-9.31,19.7,17.21,13.28,26.68,13.28,10.36,0,20.28,5.45,18.76-18.76-.65-10.34-8.4-18.76-18.76-18.76C393.5,129.6,381.06,133.54,379.21,142.55Z"/><circle class="cls-6" cx="400.8" cy="151.87" r="15.24"/><path class="cls-5" d="M390.45,136.33A17.46,17.46,0,0,1,417,151.57c-7.77,2-15.93,3.44-24.21.47l-2-4.79L389.68,152c-2.53,1-5.06,1.9-7.58,0A17.83,17.83,0,0,1,390.45,136.33Z"/><path class="cls-7" d="M441.79,198.29A52.76,52.76,0,0,1,368,203.63L372.48,191A13.57,13.57,0,0,1,384,183.07l2.88-.18,6.87-5.92s18.51-.66,18.23-1l11.21,6.75v-.05l4.41.27a13.57,13.57,0,0,1,11.53,7.92Z"/><path class="cls-1" d="M396.12,415.77l-1.31-18.24a59,59,0,0,0-27.7-6.21c13.51,10.44,12.42,31.31,21.78,45.59a35.51,35.51,0,0,0,26.47,15.69l11.24,6.46a59.48,59.48,0,0,0-13.85-47.83,57.72,57.72,0,0,0-10.82-9.52C399.47,408.77,396.12,415.77,396.12,415.77Z"/><path class="cls-1" d="M54.3,92.46,53,74.22A59,59,0,0,0,25.29,68c13.5,10.44,12.42,31.31,21.78,45.59a35.51,35.51,0,0,0,26.46,15.69l11.25,6.46A59.48,59.48,0,0,0,70.93,87.92,58,58,0,0,0,60.11,78.4C57.65,85.46,54.3,92.46,54.3,92.46Z"/><polygon class="cls-2" points="445.3 452.9 436.53 452.9 432.36 419.07 445.3 419.07 445.3 452.9"/><path class="cls-5" d="M447.54,461.4H419.26V461a11,11,0,0,1,11-11h0l5.16-3.92,9.64,3.92h2.47Z"/><polygon class="cls-2" points="522.59 452.9 513.82 452.9 509.65 419.07 522.59 419.07 522.59 452.9"/><path class="cls-5" d="M524.83,461.4H496.55V461a11,11,0,0,1,11-11h0l5.16-3.92,9.64,3.92h2.47Z"/><path class="cls-5" d="M509.25,271.86l7.38,70.07s9.82,70.16,8,79.84.47,11.07.47,11.07l-16.83-1.2s.46-6-2.31-8.76-1.38-11.06-1.38-11.06L471.91,297.68l-19.82,59.93s-3.23,65.92-3.69,66.84-1.84,13.37-1.84,13.37H429.5s2.31-7.38-.92-9.68-6-.46-3.23-4.61,3.69-9.22,2.77-11.53-.92-11.52-.92-11.52,1.38-124.47,9.22-128.62S509.25,271.86,509.25,271.86Z"/><circle class="cls-2" cx="474.32" cy="111.84" r="18.14"/><path class="cls-3" d="M515.52,279.5c-35.13,7.25-81.69-5.22-81.69-5.22l12.42-53.84-4.41-56.34c-.54-6.89,3.38-13.35,9.49-15.64l8.43-3.16,7-10,19.91.65,7.95,10.47,6.28,3.34L514.47,157l.06,0v0l-4.27,41.43-2.57,25s7.82,28.1,6.22,31.82-.21,1.93.18,3.91,1.58,2.12,1.76,6S515.52,279.5,515.52,279.5Z"/><path class="cls-8" d="M558,462H.61a.61.61,0,0,1-.61-.61.62.62,0,0,1,.61-.61H558a.61.61,0,0,1,.61.61A.61.61,0,0,1,558,462Z"/><path class="cls-5" d="M473.44,129.11a56,56,0,0,0,9.49-.9c3.09-.72,9.93-6,11.79-9.13h0a27.22,27.22,0,0,0,2.67-8.51,25,25,0,0,0-4.88-19.71,7.83,7.83,0,0,0-3.25-2.64l-.36-.11A9.61,9.61,0,0,1,484,85.24a9.05,9.05,0,0,0-.83-.81,12.09,12.09,0,0,0-5.07-2.38c-3-.72-7.28.18-12.73,2.68-2.74,1.26-5.78.91-8.12.46a.76.76,0,0,0-.71.27A5.41,5.41,0,0,1,452.91,87c-.84.06-1.68,1.23-2.7,2.76-.23.35-.5.76-.69,1l0-.47-.46.53a6.54,6.54,0,0,0,3.22,10.57,13.22,13.22,0,0,0,2.58.34c.52,0,1.07.07,1.59.15a9.83,9.83,0,0,1,7.48,6.2,2.59,2.59,0,0,0,3.34,1.47,2.75,2.75,0,0,0,.58-.32,4.24,4.24,0,0,1,3.86-.81,2.86,2.86,0,0,1,1.29,1.39,3.73,3.73,0,0,0,1.43,1.59c2.14,1,2.41,5.85,1.76,9.89-.63,3.89-2,6.73-3.34,6.91-1,.13-1.14.2-1.21.39l-.06.16.12.15A4.13,4.13,0,0,0,473.44,129.11Z"/><path class="cls-3" d="M400.75,216.63a53.44,53.44,0,1,1,53.44-53.44h0A53.5,53.5,0,0,1,400.75,216.63Zm0-105.55a52.12,52.12,0,1,0,52.12,52.11h0A52.17,52.17,0,0,0,400.75,111.08Z"/><circle class="cls-4" cx="216.29" cy="53.44" r="52.78"/><circle class="cls-9" cx="218.73" cy="41.61" r="17.21"/><path id="f183d98d-beca-4def-af6d-fbe16b93cf6a-63" class="cls-5" d="M233.88,30.24s4.48-8.56-5.37-9.34c0,0-8.41-7.62-17-1.39,0,0-4.67,0-7.22,5.28,0,0-3.68-1.39-4.49,2.34,0,0-2.68,7.79,0,14.8s3.59,7.78,3.59,7.78-1.89-8.69,8.87-9.47,20.62-7.52,21.51,1S235.68,46,235.68,46,244.19,33.75,233.88,30.24Z"/><path class="cls-7" d="M256,88.54a52.76,52.76,0,0,1-73.84,5.33l4.52-12.63a13.59,13.59,0,0,1,11.54-7.92l2.88-.18L208,67.22s18.5-.66,18.23-1L237.39,73v0l4.4.27a13.57,13.57,0,0,1,11.54,7.92Z"/><path class="cls-3" d="M216.29,106.88a53.44,53.44,0,1,1,53.44-53.44h0A53.5,53.5,0,0,1,216.29,106.88Zm0-105.56a52.12,52.12,0,1,0,52.12,52.12h0A52.18,52.18,0,0,0,216.29,1.32Z"/><circle class="cls-4" cx="93.1" cy="136.75" r="52.78"/><path class="cls-5" d="M68.63,119.58c2.19-7,7.15-13.34,14-15.69s16.92,1.23,22.08,6.38c9.44,9.4,11.74,41.72,5.25,51.93-1.29-.07-5.74-.12-7-.17l-1.85-6.15V162c-2.08-.06-4.17-.11-6.29-.13a27.37,27.37,0,0,1-27-26.69C67.6,128.37,67.77,122.32,68.63,119.58Z"/><circle class="cls-2" cx="92.31" cy="127.59" r="15.04"/><path class="cls-5" d="M79.33,114.38l17.32-8.67h0a21.76,21.76,0,0,1,12.75,18l.43,5.17-7.25-1.84-.79-6.62-1.24,6.1-3.34-.85,0-10.27-3.35,10.26-12-2.75Z"/><path class="cls-10" d="M132.26,171.67A52.75,52.75,0,0,1,58.42,177L63,164.38a13.57,13.57,0,0,1,11.54-7.92l2.88-.18,6.86-5.92s18.51-.66,18.23-1l11.21,6.74v-.05l4.41.27a13.6,13.6,0,0,1,11.54,7.93Z"/><path class="cls-3" d="M93.1,190.19a53.44,53.44,0,1,1,53.44-53.44h0A53.51,53.51,0,0,1,93.1,190.19Zm0-105.56a52.12,52.12,0,1,0,52.11,52.12h0A52.17,52.17,0,0,0,93.1,84.63Z"/><path class="cls-2" d="M449.5,190.58l-8-13.86c-10.35,1.31-30.28,14.53-30.28,14.53l-38.54,10.54a7.06,7.06,0,1,0,2.62,11.94l49.44-6.45Z"/><path class="cls-3" d="M446.75,193.09l17.89-15,2.6-12.06a13,13,0,0,0-4.66-12.89h0a13,13,0,0,0-17.62,1.6c-6.63,7.43-14.08,17.7-12,24.39l0,.07Z"/><path class="cls-11" d="M172.56,245.14H105.34a6.79,6.79,0,0,1-6.79-6.79V197a6.8,6.8,0,0,1,6.79-6.8h67.22a6.8,6.8,0,0,1,6.79,6.8v41.4A6.79,6.79,0,0,1,172.56,245.14Z"/><path class="cls-4" d="M145.85,239.81H110.07a6.38,6.38,0,0,1-6.37-6.37V201.85a6.38,6.38,0,0,1,6.37-6.37h57.76a6.38,6.38,0,0,1,6.37,6.37v9.61A28.38,28.38,0,0,1,145.85,239.81Z"/><path class="cls-7" d="M162.07,212.79H115.83a1.51,1.51,0,0,1,0-3h46.24a1.51,1.51,0,1,1,0,3Z"/><path class="cls-7" d="M123.06,218.75h-7.23a1.51,1.51,0,1,1,0-3h7.23a1.51,1.51,0,0,1,0,3Z"/><path class="cls-7" d="M135.87,224.7h-20a1.51,1.51,0,1,1,0-3h20a1.51,1.51,0,1,1,0,3Z"/><path class="cls-11" d="M347.11,57.37H279.89a6.81,6.81,0,0,1-6.8-6.8V9.17a6.8,6.8,0,0,1,6.8-6.79h67.22a6.79,6.79,0,0,1,6.79,6.79v41.4A6.79,6.79,0,0,1,347.11,57.37Z"/><path class="cls-4" d="M320.4,52H284.61a6.37,6.37,0,0,1-6.36-6.37V14.08a6.37,6.37,0,0,1,6.36-6.37h57.77a6.37,6.37,0,0,1,6.36,6.37v9.61A28.37,28.37,0,0,1,320.4,52Z"/><path class="cls-7" d="M336.62,25H290.38a1.51,1.51,0,0,1,0-3h46.25a1.51,1.51,0,1,1,0,3Z"/><path class="cls-7" d="M297.61,31h-7.23a1.51,1.51,0,1,1,0-3h7.24a1.51,1.51,0,1,1,0,3Z"/><path class="cls-7" d="M310.42,36.93h-20a1.51,1.51,0,1,1,0-3h20a1.51,1.51,0,1,1,0,3Z"/><circle class="cls-4" cx="270.75" cy="51.14" r="14.22"/><path class="cls-7" d="M270.75,37.14a12.92,12.92,0,0,0-5.85,24.43,12.58,12.58,0,0,0,1.77.76l-.6,2.35a.36.36,0,0,0,.47.44L275,62.26a14.64,14.64,0,0,0,1.57-.69,12.91,12.91,0,0,0-5.84-24.43Zm8.84,10.07-4.14,4a.23.23,0,0,0-.07.22l1,5.7a.25.25,0,0,1-.37.27l-5.12-2.69a.31.31,0,0,0-.23,0l-5.12,2.69a.25.25,0,0,1-.37-.27l1-5.7a.29.29,0,0,0-.07-.22l-4.15-4a.25.25,0,0,1,.14-.43l5.73-.84a.23.23,0,0,0,.19-.13l2.56-5.19a.26.26,0,0,1,.46,0l2.55,5.19a.24.24,0,0,0,.2.13l5.72.84A.25.25,0,0,1,279.59,47.21Z"/><circle class="cls-4" cx="98.75" cy="186.14" r="14.22"/><path class="cls-7" d="M98.75,172.14a12.92,12.92,0,0,0-5.85,24.43,12.58,12.58,0,0,0,1.77.76l-.6,2.35a.36.36,0,0,0,.47.44l8.48-2.86a14.64,14.64,0,0,0,1.57-.69,12.91,12.91,0,0,0-5.84-24.43Zm8.84,10.07-4.14,4a.23.23,0,0,0-.07.22l1,5.7a.25.25,0,0,1-.37.27l-5.12-2.69a.31.31,0,0,0-.23,0l-5.12,2.69a.25.25,0,0,1-.37-.27l1-5.7a.29.29,0,0,0-.07-.22l-4.15-4a.25.25,0,0,1,.14-.43l5.73-.84a.23.23,0,0,0,.19-.13l2.56-5.19a.26.26,0,0,1,.46,0l2.55,5.19a.24.24,0,0,0,.2.13l5.72.84A.25.25,0,0,1,107.59,182.21Z"/></g></g></svg>