<svg xmlns="http://www.w3.org/2000/svg" viewBox="0 0 32.1 35"><defs><style>.cls-1{fill:#606060;}</style></defs><g id="Layer_2" data-name="Layer 2"><g id="Layer_1-2" data-name="Layer 1"><path class="cls-1" d="M15.69,16.74a8.37,8.37,0,1,1,8.37-8.37A8.39,8.39,0,0,1,15.69,16.74Zm0-16.08A7.71,7.71,0,1,0,23.4,8.37,7.71,7.71,0,0,0,15.69.66Z"/><path class="cls-1" d="M31.77,35a.33.33,0,0,1-.33-.33A15.39,15.39,0,0,0,17.63,19.36a.33.33,0,0,1-.3-.36.33.33,0,0,1,.36-.3,16.06,16.06,0,0,1,14.41,16A.33.33,0,0,1,31.77,35Z"/><path class="cls-1" d="M.33,35A.33.33,0,0,1,0,34.67,16.08,16.08,0,0,1,14,18.75a.33.33,0,0,1,.37.29.34.34,0,0,1-.29.37A15.41,15.41,0,0,0,.66,34.67.33.33,0,0,1,.33,35Z"/></g></g></svg>